<svg width="14" height="13" viewBox="0 0 14 13" fill="none" xmlns="http://www.w3.org/2000/svg">
<path d="M5.04613 7.23137C4.9289 7.23137 4.81431 7.19661 4.71684 7.13148C4.61937 7.06635 4.5434 6.97379 4.49854 6.86549C4.45368 6.75719 4.44195 6.63801 4.46482 6.52304C4.48769 6.40807 4.54413 6.30246 4.62702 6.21957C4.70991 6.13668 4.81552 6.08023 4.9305 6.05736C5.04547 6.03449 5.16464 6.04623 5.27294 6.09109C5.38124 6.13595 5.47381 6.21192 5.53894 6.30939C5.60406 6.40685 5.63882 6.52145 5.63882 6.63867C5.63882 6.79586 5.57638 6.94662 5.46523 7.05777C5.35407 7.16892 5.20332 7.23137 5.04613 7.23137ZM8.60231 6.04597C8.48509 6.04597 8.3705 6.08073 8.27303 6.14586C8.17556 6.21099 8.09959 6.30355 8.05473 6.41186C8.00987 6.52016 7.99814 6.63933 8.02101 6.7543C8.04387 6.86927 8.10032 6.97488 8.18321 7.05777C8.2661 7.14066 8.37171 7.19711 8.48669 7.21998C8.60166 7.24285 8.72083 7.23111 8.82913 7.18625C8.93743 7.14139 9.03 7.06543 9.09513 6.96796C9.16025 6.87049 9.19501 6.7559 9.19501 6.63867C9.19501 6.48148 9.13257 6.33072 9.02142 6.21957C8.91026 6.10842 8.75951 6.04597 8.60231 6.04597ZM7.99628 8.27995C7.64436 8.49837 7.23841 8.6141 6.82422 8.6141C6.41003 8.6141 6.00408 8.49837 5.65216 8.27995C5.56348 8.22402 5.45621 8.2056 5.35394 8.22876C5.25168 8.25192 5.16281 8.31475 5.10688 8.40343C5.05094 8.49211 5.03253 8.59938 5.05568 8.70164C5.07884 8.8039 5.14167 8.89278 5.23036 8.94871C5.70854 9.24681 6.26073 9.40483 6.82422 9.40483C7.38771 9.40483 7.9399 9.24681 8.41808 8.94871C8.50677 8.89278 8.5696 8.8039 8.59276 8.70164C8.61591 8.59938 8.5975 8.49211 8.54156 8.40343C8.48563 8.31475 8.39676 8.25192 8.2945 8.22876C8.19223 8.2056 8.08496 8.22402 7.99628 8.27995ZM11.9609 6.63867C11.9609 7.65462 11.6597 8.64775 11.0952 9.49248C10.5308 10.3372 9.72857 10.9956 8.78996 11.3844C7.85134 11.7732 6.81852 11.8749 5.8221 11.6767C4.82567 11.4785 3.9104 10.9893 3.19201 10.2709C2.47363 9.5525 1.9844 8.63722 1.7862 7.6408C1.588 6.64437 1.68973 5.61155 2.07851 4.67293C2.4673 3.73432 3.12568 2.93208 3.97041 2.36765C4.81514 1.80322 5.80827 1.50195 6.82422 1.50195C8.18612 1.50339 9.49183 2.04504 10.4548 3.00805C11.4178 3.97106 11.9595 5.27677 11.9609 6.63867ZM11.1707 6.63867C11.1693 5.51978 10.737 4.4444 9.96361 3.63585C9.19019 2.8273 8.13507 2.34771 7.01734 2.29666C6.44489 3.10125 6.42909 3.86682 6.42909 3.87275C6.42909 3.97754 6.47072 4.07804 6.54482 4.15215C6.61892 4.22625 6.71942 4.26788 6.82422 4.26788C6.92902 4.26788 7.02952 4.22625 7.10362 4.15215C7.17772 4.07804 7.21935 3.97754 7.21935 3.87275C7.21935 3.76795 7.26098 3.66745 7.33508 3.59335C7.40919 3.51924 7.50969 3.47761 7.61448 3.47761C7.71928 3.47761 7.81978 3.51924 7.89389 3.59335C7.96799 3.66745 8.00962 3.76795 8.00962 3.87275C8.00962 4.18713 7.88473 4.48864 7.66242 4.71095C7.44012 4.93325 7.13861 5.05814 6.82422 5.05814C6.50983 5.05814 6.20832 4.93325 5.98602 4.71095C5.76371 4.48864 5.63882 4.18713 5.63882 3.87275C5.63882 3.83669 5.64524 3.16645 6.05668 2.35988C5.24288 2.50589 4.48761 2.88097 3.87949 3.44112C3.27137 4.00128 2.83563 4.72326 2.6234 5.52234C2.41117 6.32143 2.43126 7.16447 2.68131 7.95255C2.93136 8.74062 3.401 9.44102 4.03511 9.97157C4.66922 10.5021 5.4415 10.8408 6.26133 10.9479C7.08115 11.055 7.91452 10.926 8.66362 10.5761C9.41272 10.2262 10.0465 9.6699 10.4906 8.97248C10.9346 8.27507 11.1706 7.46546 11.1707 6.63867Z" fill="black"/>
</svg>
