<svg width="14" height="14" viewBox="0 0 14 14" fill="none" xmlns="http://www.w3.org/2000/svg">
<g clip-path="url(#clip0_16479_29688)">
<path d="M12.3573 6.1265H11.8238L10.4517 3.03953C10.3897 2.89987 10.2884 2.7812 10.1602 2.69792C10.0321 2.61464 9.88249 2.57031 9.72964 2.57031H3.9212C3.76835 2.57031 3.61878 2.61464 3.49062 2.69792C3.36245 2.7812 3.26119 2.89987 3.19909 3.03953L1.827 6.1265H1.29357C1.18877 6.1265 1.08827 6.16813 1.01417 6.24223C0.940067 6.31634 0.898438 6.41684 0.898438 6.52163C0.898438 6.62643 0.940067 6.72693 1.01417 6.80103C1.08827 6.87514 1.18877 6.91677 1.29357 6.91677H1.6887V10.8681C1.6887 11.0777 1.77196 11.2787 1.92016 11.4269C2.06837 11.5751 2.26937 11.6584 2.47897 11.6584H3.66436C3.87395 11.6584 4.07496 11.5751 4.22316 11.4269C4.37137 11.2787 4.45463 11.0777 4.45463 10.8681V10.0778H9.19621V10.8681C9.19621 11.0777 9.27947 11.2787 9.42768 11.4269C9.57588 11.5751 9.77689 11.6584 9.98648 11.6584H11.1719C11.3815 11.6584 11.5825 11.5751 11.7307 11.4269C11.8789 11.2787 11.9621 11.0777 11.9621 10.8681V6.91677H12.3573C12.4621 6.91677 12.5626 6.87514 12.6367 6.80103C12.7108 6.72693 12.7524 6.62643 12.7524 6.52163C12.7524 6.41684 12.7108 6.31634 12.6367 6.24223C12.5626 6.16813 12.4621 6.1265 12.3573 6.1265ZM3.9212 3.36058H9.72964L10.959 6.1265H2.69184L3.9212 3.36058ZM3.66436 10.8681H2.47897V10.0778H3.66436V10.8681ZM9.98648 10.8681V10.0778H11.1719V10.8681H9.98648ZM11.1719 9.28756H2.47897V6.91677H11.1719V9.28756ZM3.26923 8.10216C3.26923 7.99737 3.31086 7.89686 3.38496 7.82276C3.45906 7.74866 3.55957 7.70703 3.66436 7.70703H4.45463C4.55942 7.70703 4.65993 7.74866 4.73403 7.82276C4.80813 7.89686 4.84976 7.99737 4.84976 8.10216C4.84976 8.20696 4.80813 8.30746 4.73403 8.38156C4.65993 8.45567 4.55942 8.4973 4.45463 8.4973H3.66436C3.55957 8.4973 3.45906 8.45567 3.38496 8.38156C3.31086 8.30746 3.26923 8.20696 3.26923 8.10216ZM8.80108 8.10216C8.80108 7.99737 8.84271 7.89686 8.91681 7.82276C8.99091 7.74866 9.09142 7.70703 9.19621 7.70703H9.98648C10.0913 7.70703 10.1918 7.74866 10.2659 7.82276C10.34 7.89686 10.3816 7.99737 10.3816 8.10216C10.3816 8.20696 10.34 8.30746 10.2659 8.38156C10.1918 8.45567 10.0913 8.4973 9.98648 8.4973H9.19621C9.09142 8.4973 8.99091 8.45567 8.91681 8.38156C8.84271 8.30746 8.80108 8.20696 8.80108 8.10216Z" fill="black"/>
</g>
<defs>
<clipPath id="clip0_16479_29688">
<rect width="12.6442" height="12.6442" fill="white" transform="translate(0.5 0.595703)"/>
</clipPath>
</defs>
</svg>
