<svg width="14" height="13" viewBox="0 0 14 13" fill="none" xmlns="http://www.w3.org/2000/svg">
<path d="M10.7755 2.0127H2.8729C2.55851 2.0127 2.257 2.13758 2.03469 2.35989C1.81239 2.58219 1.6875 2.8837 1.6875 3.19809V8.72994C1.6875 9.04433 1.81239 9.34584 2.03469 9.56814C2.257 9.79045 2.55851 9.91534 2.8729 9.91534H6.42909V10.7056H5.24369C5.13889 10.7056 5.03839 10.7472 4.96429 10.8213C4.89019 10.8954 4.84856 10.9959 4.84856 11.1007C4.84856 11.2055 4.89019 11.306 4.96429 11.3801C5.03839 11.4542 5.13889 11.4959 5.24369 11.4959H8.40475C8.50954 11.4959 8.61005 11.4542 8.68415 11.3801C8.75825 11.306 8.79988 11.2055 8.79988 11.1007C8.79988 10.9959 8.75825 10.8954 8.68415 10.8213C8.61005 10.7472 8.50954 10.7056 8.40475 10.7056H7.21935V9.91534H10.7755C11.0899 9.91534 11.3914 9.79045 11.6137 9.56814C11.836 9.34584 11.9609 9.04433 11.9609 8.72994V3.19809C11.9609 2.8837 11.836 2.58219 11.6137 2.35989C11.3914 2.13758 11.0899 2.0127 10.7755 2.0127ZM2.8729 2.80296H10.7755C10.8803 2.80296 10.9808 2.84459 11.0549 2.91869C11.129 2.99279 11.1707 3.0933 11.1707 3.19809V7.14941H2.47776V3.19809C2.47776 3.0933 2.51939 2.99279 2.5935 2.91869C2.6676 2.84459 2.7681 2.80296 2.8729 2.80296ZM10.7755 9.12507H2.8729C2.7681 9.12507 2.6676 9.08344 2.5935 9.00934C2.51939 8.93524 2.47776 8.83474 2.47776 8.72994V7.93968H11.1707V8.72994C11.1707 8.83474 11.129 8.93524 11.0549 9.00934C10.9808 9.08344 10.8803 9.12507 10.7755 9.12507Z" fill="black"/>
</svg>
