<svg width="14" height="14" viewBox="0 0 14 14" fill="none" xmlns="http://www.w3.org/2000/svg">
<path d="M11.1707 3.9589H7.77797L9.47457 2.2628C9.54871 2.18866 9.59036 2.0881 9.59036 1.98324C9.59036 1.87839 9.54871 1.77783 9.47457 1.70369C9.40042 1.62954 9.29987 1.58789 9.19501 1.58789C9.09016 1.58789 8.9896 1.62954 8.91546 1.70369L6.82422 3.79542L4.73298 1.70369C4.69627 1.66697 4.65269 1.63785 4.60472 1.61798C4.55675 1.59812 4.50534 1.58789 4.45343 1.58789C4.40151 1.58789 4.3501 1.59812 4.30213 1.61798C4.25416 1.63785 4.21058 1.66697 4.17387 1.70369C4.09973 1.77783 4.05807 1.87839 4.05807 1.98324C4.05807 2.0881 4.09973 2.18866 4.17387 2.2628L5.87047 3.9589H2.47776C2.26817 3.9589 2.06717 4.04216 1.91896 4.19037C1.77076 4.33857 1.6875 4.53958 1.6875 4.74917V10.6762C1.6875 10.8857 1.77076 11.0867 1.91896 11.235C2.06717 11.3832 2.26817 11.4664 2.47776 11.4664H11.1707C11.3803 11.4664 11.5813 11.3832 11.7295 11.235C11.8777 11.0867 11.9609 10.8857 11.9609 10.6762V4.74917C11.9609 4.53958 11.8777 4.33857 11.7295 4.19037C11.5813 4.04216 11.3803 3.9589 11.1707 3.9589ZM11.1707 10.6762H2.47776V4.74917H11.1707V10.6762Z" fill="black"/>
</svg>
