<svg width="14" height="14" viewBox="0 0 14 14" fill="none" xmlns="http://www.w3.org/2000/svg">
<g clip-path="url(#clip0_16479_35156)">
<path d="M12.7282 3.58092L10.1717 2.18709C10.1137 2.15504 10.0487 2.13805 9.9825 2.1377H8.40197C8.29717 2.1377 8.19667 2.17933 8.12257 2.25343C8.04847 2.32753 8.00684 2.42803 8.00684 2.53283C8.00684 2.84721 7.88195 3.14872 7.65964 3.37103C7.43734 3.59333 7.13583 3.71822 6.82144 3.71822C6.50705 3.71822 6.20554 3.59333 5.98324 3.37103C5.76093 3.14872 5.63604 2.84721 5.63604 2.53283C5.63604 2.42803 5.59441 2.32753 5.52031 2.25343C5.44621 2.17933 5.34571 2.1377 5.24091 2.1377H3.66038C3.59402 2.13797 3.52879 2.15496 3.47072 2.18709L0.914707 3.58092C0.732502 3.67721 0.595917 3.84182 0.534901 4.03866C0.473885 4.23551 0.493418 4.44852 0.589217 4.63098L1.54099 6.44908C1.6102 6.57979 1.71393 6.68902 1.8409 6.76487C1.96787 6.84073 2.11322 6.8803 2.26112 6.87928H3.26525V10.8306C3.26525 11.0402 3.34851 11.2412 3.49671 11.3894C3.64492 11.5376 3.84592 11.6209 4.05551 11.6209H9.58736C9.79696 11.6209 9.99796 11.5376 10.1462 11.3894C10.2944 11.2412 10.3776 11.0402 10.3776 10.8306V6.87928H11.3823C11.5302 6.8803 11.6755 6.84073 11.8025 6.76487C11.9294 6.68902 12.0332 6.57979 12.1024 6.44908L13.0542 4.63098C13.1499 4.44846 13.1694 4.2354 13.1083 4.03855C13.0472 3.8417 12.9105 3.67712 12.7282 3.58092ZM2.26112 6.08902C2.25382 6.08936 2.24664 6.08708 2.24087 6.0826L1.29403 4.27437L3.26525 3.19862V6.08902H2.26112ZM9.58736 10.8306H4.05551V2.92796H4.88529C4.97646 3.37404 5.21889 3.77495 5.5716 4.06287C5.92431 4.35079 6.36564 4.50804 6.82095 4.50804C7.27625 4.50804 7.71758 4.35079 8.07029 4.06287C8.423 3.77495 8.66544 3.37404 8.7566 2.92796H9.58736V10.8306ZM11.4025 6.0821C11.3998 6.08457 11.3966 6.08645 11.3931 6.08764C11.3896 6.08883 11.3859 6.08929 11.3823 6.08902H10.3776V3.19862L12.3493 4.27437L11.4025 6.0821Z" fill="black"/>
</g>
<defs>
<clipPath id="clip0_16479_35156">
<rect width="12.6442" height="12.6442" fill="white" transform="translate(0.5 0.557617)"/>
</clipPath>
</defs>
</svg>
