<svg width="14" height="14" viewBox="0 0 14 14" fill="none" xmlns="http://www.w3.org/2000/svg">
<g clip-path="url(#clip0_16479_28809)">
<path d="M9.19556 6.36771H8.01016C7.90536 6.36771 7.80486 6.32608 7.73076 6.25198C7.65666 6.17788 7.61503 6.07738 7.61503 5.97258C7.61503 5.86779 7.65666 5.76728 7.73076 5.69318C7.80486 5.61908 7.90536 5.57745 8.01016 5.57745H9.19556C9.30035 5.57745 9.40086 5.61908 9.47496 5.69318C9.54906 5.76728 9.59069 5.86779 9.59069 5.97258C9.59069 6.07738 9.54906 6.17788 9.47496 6.25198C9.40086 6.32608 9.30035 6.36771 9.19556 6.36771ZM5.63937 5.57745H5.24423V5.18232C5.24423 5.07752 5.2026 4.97702 5.1285 4.90292C5.0544 4.82881 4.9539 4.78718 4.8491 4.78718C4.74431 4.78718 4.6438 4.82881 4.5697 4.90292C4.4956 4.97702 4.45397 5.07752 4.45397 5.18232V5.57745H4.05884C3.95404 5.57745 3.85354 5.61908 3.77944 5.69318C3.70534 5.76728 3.66371 5.86779 3.66371 5.97258C3.66371 6.07738 3.70534 6.17788 3.77944 6.25198C3.85354 6.32608 3.95404 6.36771 4.05884 6.36771H4.45397V6.76285C4.45397 6.86764 4.4956 6.96814 4.5697 7.04225C4.6438 7.11635 4.74431 7.15798 4.8491 7.15798C4.9539 7.15798 5.0544 7.11635 5.1285 7.04225C5.2026 6.96814 5.24423 6.86764 5.24423 6.76285V6.36771H5.63937C5.74416 6.36771 5.84467 6.32608 5.91877 6.25198C5.99287 6.17788 6.0345 6.07738 6.0345 5.97258C6.0345 5.86779 5.99287 5.76728 5.91877 5.69318C5.84467 5.61908 5.74416 5.57745 5.63937 5.57745ZM12.4297 10.7463C12.2808 10.9589 12.0871 11.1364 11.8623 11.2662C11.6375 11.396 11.3869 11.475 11.1283 11.4976C10.8697 11.5203 10.6092 11.486 10.3653 11.3973C10.1213 11.3085 9.89975 11.1674 9.71614 10.9838C9.71022 10.9779 9.70429 10.972 9.69886 10.9656L7.73752 8.73851H5.91003L3.95067 10.9656L3.93338 10.9838C3.5996 11.3169 3.14741 11.5041 2.67587 11.5044C2.41629 11.5043 2.15988 11.4474 1.92465 11.3376C1.68941 11.2279 1.48107 11.0679 1.31424 10.869C1.14742 10.6702 1.02616 10.4372 0.958995 10.1864C0.891826 9.93569 0.880373 9.67328 0.925439 9.41764C0.925201 9.41534 0.925201 9.41302 0.925439 9.41072L1.73398 5.25739C1.85431 4.57237 2.21222 3.95166 2.7448 3.50435C3.27739 3.05703 3.95059 2.81172 4.6461 2.81152H8.99799C9.69141 2.81263 10.3625 3.05654 10.8949 3.50089C11.4272 3.94525 11.7871 4.562 11.9121 5.24406C11.9121 5.24702 11.9121 5.24998 11.9121 5.25295L12.7206 9.41023C12.7209 9.41253 12.7209 9.41485 12.7206 9.41715C12.7625 9.64692 12.7583 9.88271 12.7084 10.1109C12.6584 10.339 12.5637 10.555 12.4297 10.7463ZM8.99799 7.94824C9.57437 7.94824 10.1271 7.71928 10.5347 7.31172C10.9423 6.90416 11.1712 6.35139 11.1712 5.77501C11.1712 5.19864 10.9423 4.64587 10.5347 4.23831C10.1271 3.83075 9.57437 3.60179 8.99799 3.60179H4.6461C4.13586 3.60225 3.64213 3.78263 3.25177 4.1112C2.8614 4.43977 2.59941 4.89548 2.51189 5.39816V5.40458L1.70286 9.55791C1.6671 9.76382 1.69757 9.97577 1.78988 10.1633C1.88219 10.3508 2.03159 10.5042 2.21659 10.6014C2.40159 10.6986 2.61266 10.7346 2.81944 10.7043C3.02622 10.674 3.21806 10.5789 3.36736 10.4326L5.43785 8.08209C5.47492 8.04003 5.52052 8.00635 5.57162 7.98327C5.62271 7.96019 5.67813 7.94825 5.7342 7.94824H8.99799ZM11.9467 9.55791L11.515 7.33529C11.2495 7.76401 10.879 8.11789 10.4385 8.36344C9.99808 8.60899 9.50226 8.73808 8.99799 8.73851H8.79055L10.2822 10.4331C10.3946 10.5425 10.5314 10.6237 10.6813 10.67C10.8312 10.7162 10.99 10.7263 11.1445 10.6993C11.402 10.6539 11.631 10.5082 11.7812 10.2943C11.9315 10.0803 11.9908 9.81552 11.9462 9.55791H11.9467Z" fill="black"/>
</g>
<defs>
<clipPath id="clip0_16479_28809">
<rect width="12.6442" height="12.6442" fill="white" transform="translate(0.5 0.836914)"/>
</clipPath>
</defs>
</svg>
