<svg width="14" height="14" viewBox="0 0 14 14" fill="none" xmlns="http://www.w3.org/2000/svg">
<path d="M9.58894 5.54064V5.10599C9.58894 4.68681 9.42242 4.2848 9.12602 3.98839C8.82961 3.69198 8.4276 3.52547 8.00841 3.52547H7.21815V2.34007H8.79868C8.90347 2.34007 9.00398 2.3817 9.07808 2.4558C9.15218 2.5299 9.19381 2.63041 9.19381 2.7352C9.19381 2.84 9.23544 2.9405 9.30954 3.0146C9.38364 3.0887 9.48415 3.13033 9.58894 3.13033C9.69374 3.13033 9.79424 3.0887 9.86834 3.0146C9.94244 2.9405 9.98407 2.84 9.98407 2.7352C9.98407 2.42081 9.85918 2.1193 9.63688 1.897C9.41457 1.67469 9.11306 1.5498 8.79868 1.5498H5.63762C5.53282 1.5498 5.43232 1.59143 5.35822 1.66554C5.28412 1.73964 5.24249 1.84014 5.24249 1.94494C5.24249 2.04973 5.28412 2.15024 5.35822 2.22434C5.43232 2.29844 5.53282 2.34007 5.63762 2.34007H6.42788V3.52547H5.63762C5.21844 3.52547 4.81642 3.69198 4.52002 3.98839C4.22361 4.2848 4.05709 4.68681 4.05709 5.10599V5.54064C3.61114 5.63233 3.21044 5.87497 2.92253 6.22766C2.63463 6.58034 2.47712 7.02151 2.47656 7.47679V11.4281C2.47656 11.6377 2.55982 11.8387 2.70803 11.9869C2.85623 12.1351 3.05724 12.2184 3.26683 12.2184H10.3792C10.5888 12.2184 10.7898 12.1351 10.938 11.9869C11.0862 11.8387 11.1695 11.6377 11.1695 11.4281V7.47679C11.1689 7.02151 11.0114 6.58034 10.7235 6.22766C10.4356 5.87497 10.0349 5.63233 9.58894 5.54064ZM5.63762 4.31573H8.00841C8.218 4.31573 8.41901 4.39899 8.56721 4.54719C8.71542 4.6954 8.79868 4.8964 8.79868 5.10599V5.50113H4.84736V5.10599C4.84736 4.8964 4.93062 4.6954 5.07882 4.54719C5.22702 4.39899 5.42803 4.31573 5.63762 4.31573ZM10.3792 11.4281H3.26683V7.47679C3.26683 7.1624 3.39172 6.86089 3.61402 6.63858C3.83633 6.41628 4.13784 6.29139 4.45222 6.29139H9.19381C9.5082 6.29139 9.80971 6.41628 10.032 6.63858C10.2543 6.86089 10.3792 7.1624 10.3792 7.47679V11.4281Z" fill="black"/>
</svg>
