<svg width="14" height="14" viewBox="0 0 14 14" fill="none" xmlns="http://www.w3.org/2000/svg">
<path d="M11.3059 5.6442L7.35462 1.91613C7.35269 1.91444 7.35087 1.91263 7.34919 1.91069C7.20371 1.77839 7.01413 1.70508 6.81749 1.70508C6.62085 1.70508 6.43127 1.77839 6.28579 1.91069L6.28035 1.91613L2.33348 5.6442C2.25297 5.71823 2.1887 5.80817 2.14475 5.90832C2.1008 6.00847 2.07811 6.11666 2.07813 6.22603V10.7923C2.07813 11.0019 2.16138 11.2029 2.30959 11.3511C2.45779 11.4993 2.6588 11.5825 2.86839 11.5825H5.23918C5.44877 11.5825 5.64978 11.4993 5.79798 11.3511C5.94619 11.2029 6.02945 11.0019 6.02945 10.7923V8.42148H7.60997V10.7923C7.60997 11.0019 7.69323 11.2029 7.84144 11.3511C7.98964 11.4993 8.19065 11.5825 8.40024 11.5825H10.771C10.9806 11.5825 11.1816 11.4993 11.3298 11.3511C11.478 11.2029 11.5613 11.0019 11.5613 10.7923V6.22603C11.5613 6.11666 11.5386 6.00847 11.4947 5.90832C11.4507 5.80817 11.3865 5.71823 11.3059 5.6442ZM10.771 10.7923H8.40024V8.42148C8.40024 8.21189 8.31698 8.01089 8.16878 7.86268C8.02057 7.71448 7.81957 7.63122 7.60997 7.63122H6.02945C5.81985 7.63122 5.61885 7.71448 5.47064 7.86268C5.32244 8.01089 5.23918 8.21189 5.23918 8.42148V10.7923H2.86839V6.22603L2.87382 6.22109L6.81971 2.4945L10.7661 6.22011L10.7715 6.22504L10.771 10.7923Z" fill="black"/>
</svg>
