<svg width="14" height="13" viewBox="0 0 14 13" fill="none" xmlns="http://www.w3.org/2000/svg">
<g clip-path="url(#clip0_16479_46206)">
<path d="M9.19261 1.06934H4.45102C4.13663 1.06934 3.83512 1.19423 3.61282 1.41653C3.39051 1.63884 3.26562 1.94035 3.26562 2.25473V10.9476C3.26562 11.262 3.39051 11.5635 3.61282 11.7858C3.83512 12.0081 4.13663 12.133 4.45102 12.133H9.19261C9.50699 12.133 9.8085 12.0081 10.0308 11.7858C10.2531 11.5635 10.378 11.262 10.378 10.9476V2.25473C10.378 1.94035 10.2531 1.63884 10.0308 1.41653C9.8085 1.19423 9.50699 1.06934 9.19261 1.06934ZM4.05589 3.44013H9.58774V9.76224H4.05589V3.44013ZM4.45102 1.8596H9.19261C9.2974 1.8596 9.39791 1.90123 9.47201 1.97533C9.54611 2.04943 9.58774 2.14994 9.58774 2.25473V2.64986H4.05589V2.25473C4.05589 2.14994 4.09752 2.04943 4.17162 1.97533C4.24572 1.90123 4.34623 1.8596 4.45102 1.8596ZM9.19261 11.3428H4.45102C4.34623 11.3428 4.24572 11.3011 4.17162 11.227C4.09752 11.1529 4.05589 11.0524 4.05589 10.9476V10.5525H9.58774V10.9476C9.58774 11.0524 9.54611 11.1529 9.47201 11.227C9.39791 11.3011 9.2974 11.3428 9.19261 11.3428Z" fill="black"/>
</g>
<defs>
<clipPath id="clip0_16479_46206">
<rect width="12.6442" height="12.6442" fill="white" transform="translate(0.5 0.279297)"/>
</clipPath>
</defs>
</svg>
