<svg width="14" height="13" viewBox="0 0 14 13" fill="none" xmlns="http://www.w3.org/2000/svg">
<g clip-path="url(#clip0_16479_46546)">
<path d="M8.40478 2.05221C8.40478 1.73961 8.31208 1.43403 8.13841 1.17411C7.96474 0.914198 7.71789 0.711617 7.42909 0.591991C7.14029 0.472365 6.8225 0.441065 6.5159 0.50205C6.20931 0.563035 5.92769 0.713566 5.70665 0.934607C5.48561 1.15565 5.33507 1.43727 5.27409 1.74386C5.2131 2.05046 5.2444 2.36825 5.36403 2.65705C5.48366 2.94586 5.68624 3.1927 5.94615 3.36637C6.20607 3.54004 6.51165 3.63274 6.82425 3.63274C7.24343 3.63274 7.64544 3.46622 7.94185 3.16981C8.23826 2.87341 8.40478 2.47139 8.40478 2.05221ZM6.82425 2.84247C6.66795 2.84247 6.51516 2.79613 6.3852 2.70929C6.25524 2.62245 6.15395 2.49903 6.09414 2.35463C6.03433 2.21023 6.01868 2.05133 6.04917 1.89804C6.07966 1.74474 6.15493 1.60393 6.26545 1.49341C6.37597 1.38289 6.51678 1.30762 6.67008 1.27713C6.82337 1.24664 6.98227 1.26229 7.12667 1.3221C7.27107 1.38191 7.39449 1.4832 7.48133 1.61316C7.56816 1.74312 7.61451 1.89591 7.61451 2.05221C7.61451 2.2618 7.53125 2.46281 7.38305 2.61101C7.23485 2.75921 7.03384 2.84247 6.82425 2.84247ZM11.9363 4.40868C11.8913 4.18739 11.7704 3.98875 11.5946 3.84708C11.4187 3.7054 11.1989 3.62959 10.9731 3.63274H2.67536C2.45018 3.63273 2.23175 3.70966 2.05627 3.85078C1.88079 3.9919 1.75879 4.18874 1.71049 4.40869C1.66219 4.62863 1.69049 4.85848 1.79069 5.06014C1.8909 5.2618 2.05699 5.42317 2.26146 5.51752H2.26788L4.7745 6.62142L3.73728 10.5589C3.62875 10.798 3.61963 11.0704 3.71194 11.3161C3.80424 11.5619 3.9904 11.761 4.22947 11.8695C4.46853 11.978 4.74092 11.9872 4.9867 11.8949C5.23249 11.8026 5.43154 11.6164 5.54007 11.3773L6.82425 9.16113L8.10843 11.3773C8.22255 11.6062 8.42099 11.7819 8.662 11.8675C8.90302 11.953 9.16782 11.9418 9.40071 11.8361C9.63359 11.7304 9.81641 11.5385 9.9107 11.3007C10.005 11.063 10.0034 10.798 9.90628 10.5614L8.86906 6.62389L11.3757 5.51999H11.3821C11.5899 5.4288 11.7591 5.26767 11.8603 5.06463C11.9616 4.86159 11.9884 4.62948 11.9363 4.40868ZM11.0571 4.79887L8.24524 6.03662C8.15916 6.07455 8.08944 6.14195 8.0486 6.22669C8.00777 6.31144 7.99851 6.40797 8.02249 6.49893L9.15207 10.7945C9.15783 10.8175 9.16594 10.8398 9.17627 10.8612C9.19285 10.8966 9.19852 10.9362 9.19258 10.9749C9.18664 11.0136 9.16934 11.0496 9.14289 11.0784C9.11643 11.1073 9.08201 11.1276 9.04399 11.1368C9.00597 11.1461 8.96606 11.1438 8.92932 11.1304C8.88019 11.1124 8.84023 11.0756 8.81818 11.0281C8.81318 11.0174 8.80757 11.0071 8.80139 10.997L7.16604 8.17676C7.1313 8.11688 7.08145 8.06718 7.02146 8.03263C6.96148 7.99808 6.89347 7.97989 6.82425 7.97989C6.75503 7.97989 6.68702 7.99808 6.62703 8.03263C6.56705 8.06718 6.51719 8.11688 6.48246 8.17676L4.84859 10.9945C4.84241 11.0046 4.8368 11.015 4.8318 11.0257C4.80975 11.0731 4.76978 11.1099 4.72066 11.1279C4.68392 11.1414 4.64401 11.1436 4.60599 11.1344C4.56797 11.1251 4.53355 11.1048 4.50709 11.076C4.48064 11.0471 4.46334 11.0111 4.4574 10.9724C4.45146 10.9337 4.45713 10.8942 4.47371 10.8587C4.48404 10.8374 4.49215 10.815 4.49791 10.792L5.62601 6.49745C5.64999 6.40649 5.64073 6.30995 5.5999 6.22521C5.55906 6.14047 5.48934 6.07307 5.40325 6.03514L2.5914 4.79887C2.55103 4.77961 2.5184 4.74723 2.49883 4.70701C2.47926 4.6668 2.47391 4.62114 2.48366 4.57749C2.49342 4.53385 2.51768 4.4948 2.55251 4.46674C2.58733 4.43867 2.63064 4.42326 2.67536 4.423H10.9731C11.018 4.42292 11.0615 4.4381 11.0966 4.46605C11.1317 4.49399 11.1562 4.53304 11.1661 4.57677C11.1761 4.6205 11.1709 4.66632 11.1513 4.70668C11.1318 4.74704 11.0991 4.77956 11.0586 4.79887H11.0571Z" fill="black"/>
</g>
<defs>
<clipPath id="clip0_16479_46546">
<rect width="12.6442" height="12.6442" fill="white" transform="translate(0.5 0.0771484)"/>
</clipPath>
</defs>
</svg>
