<svg width="14" height="13" viewBox="0 0 14 13" fill="none" xmlns="http://www.w3.org/2000/svg">
<path d="M11.9609 4.74113C11.9611 4.7044 11.9562 4.66781 11.9461 4.63247L11.2374 2.15302C11.1897 1.9885 11.0901 1.84381 10.9535 1.74055C10.8168 1.63729 10.6505 1.58099 10.4792 1.58008H3.16925C2.99797 1.58099 2.83159 1.63729 2.69495 1.74055C2.5583 1.84381 2.45873 1.9885 2.41109 2.15302L1.70281 4.63247C1.69261 4.66779 1.68745 4.70437 1.6875 4.74113V5.5314C1.6875 5.83811 1.75891 6.14061 1.89608 6.41494C2.03324 6.68927 2.2324 6.9279 2.47776 7.11193V10.273C2.47776 10.4826 2.56102 10.6836 2.70923 10.8318C2.85743 10.98 3.05844 11.0632 3.26803 11.0632H10.3804C10.59 11.0632 10.791 10.98 10.9392 10.8318C11.0874 10.6836 11.1707 10.4826 11.1707 10.273V7.11193C11.416 6.9279 11.6152 6.68927 11.7524 6.41494C11.8895 6.14061 11.9609 5.83811 11.9609 5.5314V4.74113ZM3.16925 2.37034H10.4792L11.0432 4.346H2.60668L3.16925 2.37034ZM5.63882 5.13627H8.00962V5.5314C8.00962 5.84579 7.88473 6.1473 7.66242 6.3696C7.44012 6.59191 7.13861 6.7168 6.82422 6.7168C6.50983 6.7168 6.20832 6.59191 5.98602 6.3696C5.76371 6.1473 5.63882 5.84579 5.63882 5.5314V5.13627ZM4.84856 5.13627V5.5314C4.84856 5.84579 4.72367 6.1473 4.50136 6.3696C4.27906 6.59191 3.97755 6.7168 3.66316 6.7168C3.34877 6.7168 3.04726 6.59191 2.82496 6.3696C2.60265 6.1473 2.47776 5.84579 2.47776 5.5314V5.13627H4.84856ZM10.3804 10.273H3.26803V7.46755C3.39811 7.49377 3.53047 7.507 3.66316 7.50706C3.96987 7.50706 4.27237 7.43565 4.5467 7.29848C4.82104 7.16132 5.05966 6.96216 5.24369 6.7168C5.42772 6.96216 5.66635 7.16132 5.94068 7.29848C6.21501 7.43565 6.51751 7.50706 6.82422 7.50706C7.13093 7.50706 7.43343 7.43565 7.70776 7.29848C7.98209 7.16132 8.22072 6.96216 8.40475 6.7168C8.58877 6.96216 8.8274 7.16132 9.10173 7.29848C9.37606 7.43565 9.67856 7.50706 9.98528 7.50706C10.118 7.507 10.2503 7.49377 10.3804 7.46755V10.273ZM9.98528 6.7168C9.67089 6.7168 9.36938 6.59191 9.14707 6.3696C8.92477 6.1473 8.79988 5.84579 8.79988 5.5314V5.13627H11.1707V5.5314C11.1707 5.84579 11.0458 6.1473 10.8235 6.3696C10.6012 6.59191 10.2997 6.7168 9.98528 6.7168Z" fill="black"/>
</svg>
