<svg width="10" height="10" viewBox="0 0 10 10" fill="none" xmlns="http://www.w3.org/2000/svg">
<path d="M4.44444 5.55556V0H5.55556V5.55556H4.44444ZM5 10C4.31481 10 3.66898 9.86806 3.0625 9.60417C2.45602 9.34028 1.92593 8.98148 1.47222 8.52778C1.01852 8.07407 0.659722 7.54398 0.395833 6.9375C0.131944 6.33102 0 5.68519 0 5C0 4.25926 0.152778 3.56019 0.458333 2.90278C0.763889 2.24537 1.19444 1.67593 1.75 1.19444L2.52778 1.97222C2.08333 2.34259 1.73611 2.79167 1.48611 3.31944C1.23611 3.84722 1.11111 4.40741 1.11111 5C1.11111 6.07407 1.49074 6.99074 2.25 7.75C3.00926 8.50926 3.92593 8.88889 5 8.88889C6.08333 8.88889 7.00231 8.50926 7.75694 7.75C8.51157 6.99074 8.88889 6.07407 8.88889 5C8.88889 4.40741 8.7662 3.84722 8.52083 3.31944C8.27546 2.79167 7.92593 2.34259 7.47222 1.97222L8.25 1.19444C8.80556 1.67593 9.23611 2.24537 9.54167 2.90278C9.84722 3.56019 10 4.25926 10 5C10 5.68519 9.86806 6.33102 9.60417 6.9375C9.34028 7.54398 8.9838 8.07407 8.53472 8.52778C8.08565 8.98148 7.55787 9.34028 6.95139 9.60417C6.34491 9.86806 5.69444 10 5 10Z" fill="black"/>
</svg>
