<svg width="12" height="11" viewBox="0 0 12 11" fill="none" xmlns="http://www.w3.org/2000/svg">
<path d="M8.4 10.8C8.07 10.8 7.7875 10.6825 7.5525 10.4475C7.3175 10.2125 7.2 9.93 7.2 9.6V7.2C7.2 6.87 7.3175 6.5875 7.5525 6.3525C7.7875 6.1175 8.07 6 8.4 6H10.8C11.13 6 11.4125 6.1175 11.6475 6.3525C11.8825 6.5875 12 6.87 12 7.2V9.6C12 9.93 11.8825 10.2125 11.6475 10.4475C11.4125 10.6825 11.13 10.8 10.8 10.8H8.4ZM8.4 9.6H10.8V7.2H8.4V9.6ZM0 9V7.8H5.4V9H0ZM8.4 4.8C8.07 4.8 7.7875 4.6825 7.5525 4.4475C7.3175 4.2125 7.2 3.93 7.2 3.6V1.2C7.2 0.87 7.3175 0.5875 7.5525 0.3525C7.7875 0.1175 8.07 0 8.4 0H10.8C11.13 0 11.4125 0.1175 11.6475 0.3525C11.8825 0.5875 12 0.87 12 1.2V3.6C12 3.93 11.8825 4.2125 11.6475 4.4475C11.4125 4.6825 11.13 4.8 10.8 4.8H8.4ZM8.4 3.6H10.8V1.2H8.4V3.6ZM0 3V1.8H5.4V3H0Z" fill="black"/>
</svg>
