<svg width="219" height="68" viewBox="0 0 219 68" fill="none" xmlns="http://www.w3.org/2000/svg">
<path d="M54.375 21.5625C52.75 21.5625 51.4062 21.0312 50.3438 19.9688C49.2813 18.9063 48.75 17.5625 48.75 15.9375C48.75 14.3125 49.2813 12.9687 50.3438 11.9062C51.4062 10.8438 52.75 10.3125 54.375 10.3125C56 10.3125 57.3438 10.8438 58.4062 11.9062C59.4687 12.9687 60 14.3125 60 15.9375C60 17.5625 59.4687 18.9063 58.4062 19.9688C57.3438 21.0312 56 21.5625 54.375 21.5625ZM20.625 21.5625C19 21.5625 17.6562 21.0312 16.5938 19.9688C15.5313 18.9063 15 17.5625 15 15.9375C15 14.3125 15.5313 12.9687 16.5938 11.9062C17.6562 10.8438 19 10.3125 20.625 10.3125C22.25 10.3125 23.5938 10.8438 24.6562 11.9062C25.7187 12.9687 26.25 14.3125 26.25 15.9375C26.25 17.5625 25.7187 18.9063 24.6562 19.9688C23.5938 21.0312 22.25 21.5625 20.625 21.5625ZM37.5 31.875C35.875 31.875 34.5312 31.3437 33.4688 30.2812C32.4063 29.2188 31.875 27.875 31.875 26.25C31.875 24.625 32.4063 23.2812 33.4688 22.2188C34.5312 21.1563 35.875 20.625 37.5 20.625C39.125 20.625 40.4688 21.1563 41.5312 22.2188C42.5937 23.2812 43.125 24.625 43.125 26.25C43.125 27.875 42.5937 29.2188 41.5312 30.2812C40.4688 31.3437 39.125 31.875 37.5 31.875ZM37.5 11.25C35.875 11.25 34.5312 10.7187 33.4688 9.65625C32.4063 8.59375 31.875 7.25 31.875 5.625C31.875 4 32.4063 2.65625 33.4688 1.59375C34.5312 0.53125 35.875 0 37.5 0C39.125 0 40.4688 0.53125 41.5312 1.59375C42.5937 2.65625 43.125 4 43.125 5.625C43.125 7.25 42.5937 8.59375 41.5312 9.65625C40.4688 10.7187 39.125 11.25 37.5 11.25ZM37.5 60C36.3125 60 35.0937 59.9062 33.8438 59.7188C32.5938 59.5312 31.375 59.2812 30.1875 58.9688V45.4688C30.1875 43.2812 30.875 41.4062 32.25 39.8438C33.625 38.2813 35.375 37.5 37.5 37.5C39.625 37.5 41.375 38.2813 42.75 39.8438C44.125 41.4062 44.8125 43.2812 44.8125 45.4688V58.9688C43.625 59.2812 42.4062 59.5312 41.1562 59.7188C39.9063 59.9062 38.6875 60 37.5 60ZM24.5625 57.0938C23.375 56.5937 22.1875 56.0312 21 55.4062C19.8125 54.7813 18.6875 54.0938 17.625 53.3438C15.875 52.1562 14.4844 50.5625 13.4531 48.5625C12.4219 46.5625 11.9062 44.4062 11.9062 42.0938C11.9062 40.4687 11.75 38.9219 11.4375 37.4531C11.125 35.9844 10.5 34.625 9.5625 33.375C8.875 32.625 7.67188 31.4375 5.95312 29.8125C4.23437 28.1875 2.65625 26.6562 1.21875 25.2188C0.40625 24.3438 0 23.4219 0 22.4531C0 21.4844 0.40625 20.5938 1.21875 19.7812C2.09375 18.9063 2.96875 18.4688 3.84375 18.4688C4.71875 18.4688 5.59375 18.9063 6.46875 19.7812L20.9062 33.375C22.0938 34.5 23 35.8438 23.625 37.4062C24.25 38.9687 24.5625 40.5625 24.5625 42.1875V57.0938ZM50.4375 57.0938V42.1875C50.4375 40.5625 50.8281 38.9687 51.6094 37.4062C52.3906 35.8438 53.375 34.5 54.5625 33.375L68.5312 19.7812C69.2812 19.0937 70.1719 18.75 71.2031 18.75C72.2344 18.75 73.0937 19.0937 73.7812 19.7812C74.5938 20.5938 75 21.4844 75 22.4531C75 23.4219 74.5938 24.3438 73.7812 25.2188C72.3438 26.6562 70.7656 28.1563 69.0469 29.7188C67.3281 31.2812 66.125 32.5 65.4375 33.375C64.5 34.625 63.875 35.9844 63.5625 37.4531C63.25 38.9219 63.0938 40.4687 63.0938 42.0938C63.0938 44.4062 62.5781 46.5625 61.5469 48.5625C60.5156 50.5625 59.125 52.1562 57.375 53.3438C56.3125 54.0313 55.1875 54.7031 54 55.3594C52.8125 56.0156 51.625 56.5937 50.4375 57.0938Z" fill="black"/>
<path d="M67.01 34.32H71.51V43.98H71.57C72.09 43.28 72.75 42.79 73.55 42.51C74.37 42.21 75.25 42.06 76.19 42.06C77.23 42.06 78.16 42.28 78.98 42.72C79.8 43.14 80.49 43.71 81.05 44.43C81.63 45.15 82.07 45.98 82.37 46.92C82.69 47.84 82.85 48.81 82.85 49.83C82.85 50.93 82.68 51.94 82.34 52.86C82 53.78 81.51 54.58 80.87 55.26C80.25 55.92 79.5 56.44 78.62 56.82C77.74 57.18 76.76 57.36 75.68 57.36C75.16 57.36 74.67 57.29 74.21 57.15C73.75 57.01 73.32 56.83 72.92 56.61C72.54 56.39 72.2 56.15 71.9 55.89C71.62 55.61 71.39 55.34 71.21 55.08H71.15V57H67.01V34.32ZM71.15 49.71C71.15 50.81 71.46 51.7 72.08 52.38C72.72 53.06 73.61 53.4 74.75 53.4C75.89 53.4 76.77 53.06 77.39 52.38C78.03 51.7 78.35 50.81 78.35 49.71C78.35 48.61 78.03 47.72 77.39 47.04C76.77 46.36 75.89 46.02 74.75 46.02C73.61 46.02 72.72 46.36 72.08 47.04C71.46 47.72 71.15 48.61 71.15 49.71ZM99.5265 57H95.2065V55.02H95.1465C94.9865 55.3 94.7765 55.58 94.5165 55.86C94.2765 56.14 93.9765 56.39 93.6165 56.61C93.2565 56.83 92.8465 57.01 92.3865 57.15C91.9265 57.29 91.4265 57.36 90.8865 57.36C89.7465 57.36 88.8165 57.19 88.0965 56.85C87.3965 56.49 86.8465 56 86.4465 55.38C86.0665 54.76 85.8065 54.03 85.6665 53.19C85.5465 52.35 85.4865 51.44 85.4865 50.46V42.42H89.9865V49.56C89.9865 49.98 89.9965 50.42 90.0165 50.88C90.0565 51.32 90.1465 51.73 90.2865 52.11C90.4465 52.49 90.6765 52.8 90.9765 53.04C91.2965 53.28 91.7465 53.4 92.3265 53.4C92.9065 53.4 93.3765 53.3 93.7365 53.1C94.0965 52.88 94.3665 52.6 94.5465 52.26C94.7465 51.9 94.8765 51.5 94.9365 51.06C94.9965 50.62 95.0265 50.16 95.0265 49.68V42.42H99.5265V57ZM102.713 42.42H107.033V44.4H107.093C107.233 44.12 107.433 43.84 107.693 43.56C107.953 43.28 108.263 43.03 108.623 42.81C108.983 42.59 109.393 42.41 109.853 42.27C110.313 42.13 110.813 42.06 111.353 42.06C112.493 42.06 113.413 42.24 114.113 42.6C114.813 42.94 115.353 43.42 115.733 44.04C116.133 44.66 116.403 45.39 116.543 46.23C116.683 47.07 116.753 47.98 116.753 48.96V57H112.253V49.86C112.253 49.44 112.233 49.01 112.193 48.57C112.173 48.11 112.083 47.69 111.923 47.31C111.783 46.93 111.553 46.62 111.233 46.38C110.933 46.14 110.493 46.02 109.913 46.02C109.333 46.02 108.863 46.13 108.503 46.35C108.143 46.55 107.863 46.83 107.663 47.19C107.483 47.53 107.363 47.92 107.303 48.36C107.243 48.8 107.213 49.26 107.213 49.74V57H102.713V42.42ZM129.87 46.02H125.91V50.88C125.91 51.28 125.93 51.65 125.97 51.99C126.01 52.31 126.1 52.59 126.24 52.83C126.38 53.07 126.59 53.26 126.87 53.4C127.17 53.52 127.56 53.58 128.04 53.58C128.28 53.58 128.59 53.56 128.97 53.52C129.37 53.46 129.67 53.34 129.87 53.16V56.91C129.37 57.09 128.85 57.21 128.31 57.27C127.77 57.33 127.24 57.36 126.72 57.36C125.96 57.36 125.26 57.28 124.62 57.12C123.98 56.96 123.42 56.71 122.94 56.37C122.46 56.01 122.08 55.55 121.8 54.99C121.54 54.43 121.41 53.75 121.41 52.95V46.02H118.53V42.42H121.41V38.1H125.91V42.42H129.87V46.02ZM146.196 57H141.876V55.02H141.816C141.656 55.3 141.446 55.58 141.186 55.86C140.946 56.14 140.646 56.39 140.286 56.61C139.926 56.83 139.516 57.01 139.056 57.15C138.596 57.29 138.096 57.36 137.556 57.36C136.416 57.36 135.486 57.19 134.766 56.85C134.066 56.49 133.516 56 133.116 55.38C132.736 54.76 132.476 54.03 132.336 53.19C132.216 52.35 132.156 51.44 132.156 50.46V42.42H136.656V49.56C136.656 49.98 136.666 50.42 136.686 50.88C136.726 51.32 136.816 51.73 136.956 52.11C137.116 52.49 137.346 52.8 137.646 53.04C137.966 53.28 138.416 53.4 138.996 53.4C139.576 53.4 140.046 53.3 140.406 53.1C140.766 52.88 141.036 52.6 141.216 52.26C141.416 51.9 141.546 51.5 141.606 51.06C141.666 50.62 141.696 50.16 141.696 49.68V42.42H146.196V57ZM150.133 35.76H164.383V40.08H154.813V44.4H163.663V48.72H154.813V57H150.133V35.76ZM181.206 57H176.886V55.02H176.826C176.666 55.3 176.456 55.58 176.196 55.86C175.956 56.14 175.656 56.39 175.296 56.61C174.936 56.83 174.526 57.01 174.066 57.15C173.606 57.29 173.106 57.36 172.566 57.36C171.426 57.36 170.496 57.19 169.776 56.85C169.076 56.49 168.526 56 168.126 55.38C167.746 54.76 167.486 54.03 167.346 53.19C167.226 52.35 167.166 51.44 167.166 50.46V42.42H171.666V49.56C171.666 49.98 171.676 50.42 171.696 50.88C171.736 51.32 171.826 51.73 171.966 52.11C172.126 52.49 172.356 52.8 172.656 53.04C172.976 53.28 173.426 53.4 174.006 53.4C174.586 53.4 175.056 53.3 175.416 53.1C175.776 52.88 176.046 52.6 176.226 52.26C176.426 51.9 176.556 51.5 176.616 51.06C176.676 50.62 176.706 50.16 176.706 49.68V42.42H181.206V57ZM184.393 42.42H188.713V44.4H188.773C188.913 44.12 189.113 43.84 189.373 43.56C189.633 43.28 189.943 43.03 190.303 42.81C190.663 42.59 191.073 42.41 191.533 42.27C191.993 42.13 192.493 42.06 193.033 42.06C194.173 42.06 195.093 42.24 195.793 42.6C196.493 42.94 197.033 43.42 197.413 44.04C197.813 44.66 198.083 45.39 198.223 46.23C198.363 47.07 198.433 47.98 198.433 48.96V57H193.933V49.86C193.933 49.44 193.913 49.01 193.873 48.57C193.853 48.11 193.763 47.69 193.603 47.31C193.463 46.93 193.233 46.62 192.913 46.38C192.613 46.14 192.173 46.02 191.593 46.02C191.013 46.02 190.543 46.13 190.183 46.35C189.823 46.55 189.543 46.83 189.343 47.19C189.163 47.53 189.043 47.92 188.983 48.36C188.923 48.8 188.893 49.26 188.893 49.74V57H184.393V42.42ZM216.919 57H212.779V55.08H212.719C212.539 55.34 212.299 55.61 211.999 55.89C211.719 56.15 211.379 56.39 210.979 56.61C210.599 56.83 210.169 57.01 209.689 57.15C209.229 57.29 208.749 57.36 208.249 57.36C207.169 57.36 206.189 57.18 205.309 56.82C204.429 56.44 203.669 55.92 203.029 55.26C202.409 54.58 201.929 53.78 201.589 52.86C201.249 51.94 201.079 50.93 201.079 49.83C201.079 48.81 201.229 47.84 201.529 46.92C201.849 45.98 202.289 45.15 202.849 44.43C203.429 43.71 204.129 43.14 204.949 42.72C205.769 42.28 206.699 42.06 207.739 42.06C208.679 42.06 209.549 42.21 210.349 42.51C211.169 42.79 211.839 43.28 212.359 43.98H212.419V34.32H216.919V57ZM212.779 49.71C212.779 48.61 212.459 47.72 211.819 47.04C211.199 46.36 210.319 46.02 209.179 46.02C208.039 46.02 207.149 46.36 206.509 47.04C205.889 47.72 205.579 48.61 205.579 49.71C205.579 50.81 205.889 51.7 206.509 52.38C207.149 53.06 208.039 53.4 209.179 53.4C210.319 53.4 211.199 53.06 211.819 52.38C212.459 51.7 212.779 50.81 212.779 49.71Z" fill="black"/>
</svg>
