<?xml version="1.0" standalone="no"?>
<!DOCTYPE svg PUBLIC "-//W3C//DTD SVG 20010904//EN"
 "http://www.w3.org/TR/2001/REC-SVG-20010904/DTD/svg10.dtd">
<svg version="1.0" xmlns="http://www.w3.org/2000/svg"
 width="1632.000000pt" height="1632.000000pt" viewBox="0 0 1632.000000 1632.000000"
 preserveAspectRatio="xMidYMid meet">
<metadata>
Created by potrace 1.14, written by Peter Selinger 2001-2017
</metadata>
<g transform="translate(0.000000,1632.000000) scale(0.100000,-0.100000)"
fill="#000000" stroke="none">
<path d="M3499 11876 c-2 -2 -47 -7 -99 -10 -53 -4 -107 -9 -120 -12 -14 -2
-47 -7 -75 -9 -27 -2 -50 -5 -50 -5 0 -1 -11 -3 -25 -6 -14 -2 -47 -8 -75 -14
-27 -5 -61 -12 -75 -14 -14 -3 -34 -7 -45 -10 -11 -3 -49 -12 -85 -20 -36 -8
-105 -26 -155 -41 -49 -14 -94 -27 -100 -29 -24 -6 -151 -49 -160 -55 -5 -3
-15 -6 -21 -7 -45 -7 -461 -201 -496 -232 -10 -8 -18 -12 -18 -8 0 4 -19 -6
-42 -22 -24 -15 -74 -47 -113 -70 -107 -65 -300 -203 -370 -264 -11 -10 -31
-27 -45 -38 -188 -154 -474 -456 -600 -636 -89 -126 -188 -280 -242 -374 -71
-123 -188 -363 -188 -383 0 -7 -6 -21 -13 -32 -8 -11 -24 -49 -37 -85 -13 -36
-28 -76 -33 -90 -6 -14 -11 -29 -12 -35 -2 -5 -14 -43 -28 -83 -14 -40 -26
-75 -26 -77 0 -3 -6 -29 -14 -58 -44 -155 -77 -324 -111 -558 -14 -98 -20
-225 -20 -434 0 -284 12 -435 50 -640 3 -16 7 -43 10 -60 2 -16 7 -41 11 -55
3 -14 7 -31 9 -39 34 -173 137 -501 200 -639 13 -29 24 -55 24 -57 0 -12 114
-241 164 -329 31 -54 56 -100 56 -103 0 -2 5 -9 10 -16 6 -7 47 -68 92 -137
45 -69 84 -127 87 -130 3 -3 28 -34 56 -70 27 -36 54 -70 60 -76 5 -7 24 -29
40 -50 89 -112 294 -317 445 -444 88 -75 100 -84 155 -125 22 -17 42 -32 45
-35 13 -14 177 -122 275 -182 111 -68 356 -194 475 -244 104 -43 296 -113 342
-123 4 -1 26 -8 48 -16 22 -8 41 -14 43 -13 1 0 20 -5 42 -11 78 -22 301 -72
345 -77 25 -2 55 -7 68 -9 67 -14 56 -13 262 -32 160 -15 625 -7 734 13 15 2
47 7 70 9 22 2 55 7 71 10 17 3 44 7 60 10 17 3 41 8 55 11 14 3 37 7 52 9 15
2 44 9 65 14 21 6 49 12 63 15 14 2 25 5 25 6 0 1 7 3 15 5 8 1 35 8 60 15 25
7 52 14 60 15 64 15 361 122 402 145 10 6 25 10 33 10 8 0 15 4 15 8 0 4 10 8
21 9 12 1 29 9 38 17 10 9 23 16 29 16 12 0 208 100 290 149 29 17 57 31 62
31 6 0 10 4 10 9 0 5 14 14 30 21 17 7 30 16 30 21 0 5 4 9 10 9 8 0 68 36 95
58 6 4 27 18 48 31 20 12 37 27 37 32 0 5 7 9 15 9 8 0 15 4 15 8 0 4 12 15
28 24 25 16 59 41 104 80 20 17 20 18 -13 60 -68 88 -55 89 -176 -4 -115 -87
-326 -228 -342 -228 -5 0 -11 -3 -13 -7 -11 -26 -383 -204 -558 -268 -41 -14
-92 -33 -112 -41 -21 -8 -38 -11 -38 -8 0 4 -6 2 -13 -4 -21 -17 -351 -101
-467 -118 -19 -3 -46 -7 -60 -10 -14 -2 -47 -7 -75 -10 -27 -2 -59 -7 -71 -9
-83 -18 -577 -26 -704 -12 -30 4 -77 9 -105 12 -63 6 -113 14 -145 20 -14 3
-41 7 -60 10 -61 7 -143 25 -270 58 -41 11 -93 24 -115 29 -22 5 -49 13 -60
18 -11 4 -63 22 -115 40 -87 30 -155 56 -250 97 -83 35 -286 137 -302 151 -10
8 -18 12 -18 9 0 -8 -186 108 -320 200 -31 21 -143 106 -150 113 -3 3 -18 16
-35 29 -91 69 -360 327 -433 415 -99 118 -169 207 -209 264 -26 37 -50 69 -53
72 -3 3 -11 17 -19 33 -8 15 -18 27 -23 27 -4 0 -8 5 -8 11 0 6 -13 30 -30 54
-16 24 -30 46 -30 48 0 3 -17 34 -38 68 -39 65 -153 290 -184 364 -55 132
-133 347 -141 390 -2 11 -6 27 -9 35 -14 38 -44 158 -64 255 -2 11 -6 31 -9
45 -3 14 -8 41 -11 60 -6 37 -10 63 -17 95 -3 11 -8 52 -12 90 -4 39 -9 84
-10 100 -2 17 -7 88 -10 160 -4 71 -7 132 -7 135 0 3 0 7 1 10 1 3 4 79 6 170
3 91 7 179 9 195 2 17 7 62 12 100 8 70 10 83 13 88 1 1 4 20 6 42 2 22 6 51
9 65 10 45 26 125 30 150 3 14 5 25 6 25 2 0 6 16 14 55 14 62 70 249 100 333
65 177 169 415 189 428 5 3 8 9 8 13 -2 8 49 109 58 116 3 3 15 24 26 47 11
24 23 43 28 43 4 0 7 7 7 15 0 8 4 15 9 15 5 0 12 8 15 18 8 22 21 43 73 117
23 33 57 80 74 105 29 42 130 170 154 196 5 6 45 50 88 97 117 129 283 285
389 367 11 8 36 30 56 47 20 18 41 33 45 33 5 0 14 6 22 13 7 7 46 36 86 63
41 27 76 52 79 55 3 3 57 36 120 74 144 85 353 190 490 245 119 48 365 130
390 130 9 0 20 3 24 7 3 4 17 8 29 10 12 2 40 9 62 15 22 6 47 12 55 13 8 1
49 9 90 18 41 8 91 18 110 21 19 3 44 7 55 10 11 2 54 7 95 11 41 4 82 9 91
10 32 6 256 16 354 16 101 0 242 -7 325 -16 25 -3 70 -8 100 -11 30 -3 66 -8
80 -10 14 -3 41 -7 60 -10 35 -4 51 -8 100 -19 14 -3 39 -8 55 -11 17 -3 46
-9 65 -14 19 -5 73 -19 120 -31 145 -37 335 -103 497 -173 107 -46 318 -151
333 -166 3 -3 25 -16 50 -29 92 -49 332 -214 426 -293 142 -119 196 -168 306
-278 70 -71 128 -125 130 -121 2 3 27 27 55 51 29 25 53 48 53 51 0 10 -246
256 -319 319 -70 61 -77 66 -171 139 -36 28 -70 55 -76 60 -30 24 -209 143
-279 184 -44 26 -87 52 -95 57 -18 11 -349 179 -353 179 -4 -1 -176 65 -212
81 -16 7 -85 30 -105 35 -3 1 -12 4 -20 7 -8 4 -24 9 -35 11 -11 3 -51 15 -90
27 -38 12 -81 23 -95 26 -13 3 -63 14 -110 25 -47 11 -96 22 -110 24 -14 2
-25 4 -25 5 0 1 -12 3 -26 5 -15 2 -44 6 -65 10 -70 12 -167 24 -239 31 -64 6
-561 15 -566 10z"/>
<path d="M6030 10131 c-1 -34 -1 -2744 0 -2796 l0 -40 360 1 c198 0 363 4 367
8 5 4 8 247 8 539 l1 532 135 1 c162 2 225 -7 304 -46 129 -64 177 -133 390
-565 95 -192 185 -376 199 -407 15 -32 33 -58 39 -59 51 -4 740 -3 755 1 17 4
-1 46 -159 365 -98 198 -178 360 -177 360 2 0 -39 79 -85 165 -86 161 -201
304 -297 367 -59 39 -109 63 -131 63 -34 0 -29 18 8 30 91 29 217 106 288 175
100 99 142 169 179 295 28 98 39 284 23 385 -3 22 -9 58 -12 79 -4 22 -12 51
-17 65 -6 14 -12 31 -13 37 -2 5 -13 30 -25 55 -12 24 -28 54 -34 66 -6 13
-14 23 -18 23 -5 0 -8 4 -8 9 0 14 -74 86 -135 131 -106 78 -289 142 -473 165
-24 3 -65 8 -90 11 -26 3 -347 7 -714 8 l-668 2 0 -25z m1140 -515 c146 -11
245 -62 297 -153 23 -40 36 -109 38 -198 5 -230 -93 -344 -317 -369 -69 -8
-408 -9 -416 -2 -9 9 -10 708 -1 721 8 11 266 11 399 1z"/>
<path d="M9049 10141 c-5 -83 -3 -2829 2 -2836 5 -7 354 -10 1016 -9 l1008 0
2 53 c0 28 4 58 7 66 3 8 2 15 -2 15 -5 0 -7 19 -6 43 5 76 5 90 4 237 l-2
145 -644 0 c-429 0 -644 3 -645 10 -1 5 -2 152 -3 325 l-1 315 589 5 589 5 1
263 c1 145 -2 269 -6 275 -5 9 -158 12 -575 14 -312 0 -575 2 -583 2 -14 1
-16 34 -15 264 l0 262 615 2 c338 1 620 2 625 2 7 1 11 93 10 279 l0 277 -992
1 c-890 0 -993 -2 -994 -15z"/>
<path d="M11729 10131 c-3 -154 0 -2821 4 -2827 4 -7 651 -11 688 -5 3 1 5
436 5 967 -1 531 2 968 5 970 3 2 23 -29 44 -69 38 -74 88 -168 155 -292 21
-38 61 -115 90 -170 29 -55 56 -105 61 -111 5 -6 7 -13 4 -16 -3 -3 1 -11 10
-18 8 -7 15 -16 15 -20 0 -5 16 -36 34 -69 19 -34 32 -61 28 -61 -4 0 -2 -4 3
-8 6 -4 17 -21 26 -37 57 -110 166 -318 189 -360 15 -27 48 -89 74 -137 78
-148 132 -249 176 -333 24 -44 55 -102 69 -130 15 -27 31 -57 36 -65 5 -8 10
-19 10 -24 0 -19 60 -22 495 -20 508 2 490 2 489 12 -1 4 -1 9 0 12 1 6 135
391 157 456 l15 41 568 0 c313 0 574 -3 580 -6 8 -6 135 -358 172 -477 5 -18
17 -33 27 -36 9 -2 94 -3 187 -3 l170 1 3 493 2 492 -59 162 c-33 89 -85 230
-116 312 -31 83 -58 155 -59 160 -2 6 -7 19 -11 30 -4 11 -20 54 -36 95 -80
217 -132 358 -142 385 -7 17 -12 32 -13 35 0 3 -4 14 -9 25 -7 18 -26 69 -87
235 -11 30 -26 71 -33 90 -17 45 -28 74 -30 80 -1 3 -5 14 -9 25 -4 11 -17 45
-28 75 -11 30 -24 64 -28 75 -5 11 -14 36 -21 56 l-12 35 -440 0 -440 -1 -44
-115 c-24 -63 -52 -140 -63 -170 -10 -30 -24 -68 -31 -85 -7 -16 -13 -37 -15
-46 -2 -8 -10 -29 -19 -45 -8 -16 -15 -36 -15 -45 0 -9 -3 -19 -7 -23 -5 -4
-8 -11 -9 -14 0 -4 -6 -20 -12 -35 -7 -16 -12 -33 -12 -38 0 -5 -4 -17 -10
-27 -5 -9 -23 -53 -39 -97 -103 -285 -165 -452 -170 -465 -3 -8 -7 260 -9 596
l-2 610 -348 0 -347 -1 -5 -975 c-3 -592 -9 -967 -14 -955 -5 11 -16 28 -24
38 -8 9 -12 17 -7 17 4 0 3 6 -3 13 -9 11 -36 61 -147 272 -43 83 -112 212
-172 325 -19 36 -40 71 -45 78 -6 6 -7 12 -4 12 4 0 -2 14 -14 30 -12 17 -18
30 -13 30 4 0 4 4 -2 8 -12 8 -11 8 -185 337 -29 55 -69 132 -90 170 -21 39
-61 115 -90 170 -29 55 -72 136 -95 180 -24 44 -63 118 -88 165 l-44 85 -412
1 -411 0 -1 -25z m3529 -851 c33 -96 74 -215 91 -265 18 -49 34 -97 36 -105 2
-8 27 -80 55 -160 28 -80 53 -152 55 -160 2 -8 21 -66 43 -127 l40 -113 -389
0 c-227 0 -389 4 -389 9 0 5 10 35 21 68 12 32 24 65 26 73 3 8 32 92 65 185
32 94 61 177 63 185 4 14 106 310 161 465 14 39 26 75 28 80 2 6 6 23 11 39
10 38 11 35 83 -174z"/>
<path d="M3365 10128 c-17 -4 -43 -9 -60 -11 -51 -6 -183 -67 -243 -112 -108
-80 -180 -184 -210 -305 -5 -19 -9 -129 -10 -243 -1 -115 -4 -212 -7 -217 -2
-4 -113 -8 -246 -8 -240 0 -242 0 -265 -23 -13 -14 -26 -41 -28 -61 -5 -35
-20 -121 -31 -178 -3 -14 -8 -47 -11 -75 -4 -27 -8 -53 -10 -56 -4 -7 -39
-211 -58 -339 -4 -25 -9 -52 -11 -60 -2 -8 -6 -28 -9 -45 -3 -16 -14 -84 -26
-150 -27 -156 -29 -164 -34 -203 -3 -18 -8 -47 -11 -63 -4 -17 -8 -40 -10 -52
-2 -12 -6 -39 -10 -61 -4 -21 -8 -50 -10 -65 -2 -14 -4 -26 -5 -26 -1 0 -3 -9
-4 -20 -6 -36 -16 -100 -21 -125 -3 -14 -8 -41 -11 -60 -8 -50 -13 -81 -19
-110 -2 -13 -7 -42 -11 -65 -16 -102 -19 -108 -65 -100 -21 4 -49 8 -62 9
-135 15 -332 95 -405 163 -109 104 -95 223 37 304 34 20 141 61 141 53 0 -4 6
-2 13 4 6 5 54 18 105 27 50 10 92 21 92 25 0 8 -129 5 -137 -4 -3 -3 -12 -1
-20 5 -7 6 -13 8 -13 3 0 -5 -17 -10 -38 -10 -97 -4 -227 -53 -287 -109 -76
-71 -95 -187 -46 -288 23 -48 115 -147 137 -147 7 0 14 -4 16 -9 7 -19 254
-120 275 -113 2 0 17 -4 35 -9 99 -28 342 -30 468 -4 14 2 36 7 49 10 111 22
255 77 361 138 216 125 232 130 110 32 -68 -55 -116 -87 -157 -104 -11 -5 -24
-15 -28 -21 -3 -5 -11 -8 -16 -5 -5 4 -9 1 -9 -4 0 -6 -4 -11 -10 -11 -5 0
-38 -14 -72 -31 -80 -39 -247 -93 -363 -119 -69 -14 -119 -18 -212 -16 -86 2
-123 0 -124 -8 -8 -106 -8 -106 14 -107 12 -1 48 -1 79 0 l57 1 -5 -32 c-2
-18 -6 -51 -9 -72 -3 -22 -7 -41 -9 -44 -8 -7 25 -76 47 -100 50 -54 147 -74
287 -59 14 2 37 0 52 -4 15 -4 30 -4 33 1 3 5 18 5 33 1 26 -6 48 -6 117 2 17
2 42 0 57 -4 15 -4 30 -4 33 1 3 4 20 5 37 1 18 -4 45 -6 61 -4 15 2 39 4 55
6 15 2 39 0 54 -4 15 -4 30 -4 33 1 3 5 18 5 33 1 26 -6 48 -6 117 2 17 2 42
0 57 -4 15 -4 30 -4 33 1 3 4 20 5 37 1 18 -4 44 -6 58 -4 22 2 118 4 160 2 8
0 53 0 100 0 47 0 92 0 100 0 8 -1 35 0 60 0 25 0 52 1 60 0 58 -3 264 0 300
4 14 2 37 0 52 -4 15 -4 30 -4 33 1 3 4 20 5 37 1 18 -4 45 -6 61 -4 15 2 39
4 55 6 15 2 39 0 54 -4 15 -4 30 -4 33 1 3 5 18 5 33 1 26 -6 48 -6 117 2 17
2 42 0 57 -4 15 -4 30 -4 33 1 3 4 20 5 37 1 18 -4 44 -6 58 -4 14 1 39 4 55
6 17 2 42 0 57 -4 15 -4 30 -4 33 1 3 5 18 5 33 1 15 -4 41 -6 57 -4 17 2 50
5 75 7 58 4 87 17 127 54 30 28 56 91 47 115 -2 7 -6 30 -8 52 -3 22 -7 51
-10 65 -6 30 -15 90 -22 145 -3 22 -10 57 -15 77 -5 20 -9 40 -8 45 1 4 1 10
-1 13 -5 15 -31 192 -28 195 2 1 55 5 118 9 63 3 126 8 140 11 14 3 39 8 55
11 17 2 48 10 70 16 22 6 46 13 53 14 24 4 23 11 -4 60 -53 96 -47 91 -91 72
-15 -6 -30 -12 -33 -13 -126 -38 -239 -55 -382 -56 -87 -1 -226 9 -238 16 -3
2 -26 6 -50 10 -54 7 -211 54 -225 66 -5 5 -17 9 -27 9 -10 0 -26 4 -36 9 -9
5 -35 17 -57 26 -166 71 -365 193 -466 285 -30 27 -51 49 -48 50 3 0 19 -12
35 -26 50 -44 217 -151 279 -179 33 -15 69 -31 80 -36 36 -16 159 -58 185 -63
14 -2 52 -11 85 -20 57 -14 104 -21 220 -32 58 -6 43 -6 175 0 104 5 151 10
200 21 14 3 37 7 52 10 15 3 38 9 52 15 15 5 26 7 26 4 0 -4 11 1 25 10 14 9
25 14 25 12 0 -7 131 49 178 76 188 105 275 273 224 432 -16 49 -95 146 -119
146 -6 0 -13 4 -15 8 -5 13 -131 61 -190 73 -106 20 -338 32 -338 17 0 -4 8
-8 18 -8 9 0 61 -11 114 -24 309 -79 411 -153 403 -293 -7 -118 -114 -214
-325 -292 -77 -28 -223 -62 -231 -53 -4 4 -10 23 -13 42 -3 19 -8 46 -11 60
-5 24 -8 44 -20 115 -3 17 -12 71 -21 120 -9 50 -18 99 -19 110 -3 19 -10 56
-19 101 -2 12 -7 39 -10 60 -4 22 -11 65 -17 97 -5 32 -12 73 -15 90 -3 18 -7
41 -9 52 -2 11 -6 34 -9 50 -3 17 -8 46 -11 65 -6 30 -39 215 -50 275 -2 11
-6 40 -9 65 -10 71 -25 106 -50 120 -18 9 -91 13 -278 13 l-253 0 0 215 c1
236 -10 295 -71 399 -61 105 -217 223 -333 253 -25 7 -53 14 -61 17 -28 11
-45 13 -135 16 -50 2 -104 0 -120 -5z m215 -113 c24 -4 49 -10 55 -13 5 -4 16
-7 24 -8 30 -5 140 -69 177 -103 58 -54 103 -121 123 -184 14 -46 17 -94 16
-264 l0 -208 -513 -1 -513 -2 3 227 3 226 31 66 c63 132 214 241 369 265 22 3
41 7 42 8 5 5 139 -2 183 -9z"/>
<path d="M5935 6446 l0 -421 55 0 55 0 0 358 c0 196 2 357 5 357 4 0 110 -276
199 -516 15 -41 15 -41 67 -42 29 0 57 5 62 11 5 7 23 50 41 97 18 47 46 119
62 160 16 41 29 78 29 81 0 4 8 24 17 45 9 22 18 44 19 49 9 32 37 101 43 108
5 5 8 -148 7 -340 -1 -191 0 -354 2 -360 3 -8 24 -13 58 -13 l53 0 0 424 0
425 -87 -2 -86 -2 -21 -58 c-63 -178 -191 -507 -197 -507 -5 0 -7 3 -6 8 0 4
-2 14 -5 22 -4 8 -41 107 -82 220 -42 113 -83 219 -91 237 -8 17 -14 38 -14
46 0 27 -24 35 -105 34 l-80 -1 0 -420z"/>
<path d="M7120 6776 c-19 -50 -40 -102 -46 -115 -7 -14 -11 -28 -8 -33 3 -4 1
-8 -4 -8 -5 0 -9 -6 -9 -12 -1 -11 -56 -161 -80 -218 -3 -8 -7 -17 -8 -20 0
-3 -16 -43 -34 -90 -19 -47 -48 -124 -66 -172 l-33 -88 62 0 61 0 24 73 c13
39 28 83 34 97 6 14 11 30 11 35 1 6 73 10 195 10 l194 0 36 -105 36 -105 63
-3 62 -3 -11 28 c-6 15 -15 38 -20 51 -5 12 -13 32 -19 45 -19 46 -101 263
-105 279 -2 9 -11 30 -19 47 -9 17 -17 34 -17 38 -2 9 -6 21 -55 153 -20 52
-46 120 -58 150 l-23 55 -64 1 -65 0 -34 -90z m129 -98 c13 -35 36 -101 53
-148 16 -47 36 -98 43 -115 7 -16 16 -42 20 -56 l6 -26 -156 0 c-108 0 -153 3
-145 11 5 5 10 19 10 31 0 12 4 25 8 31 5 5 21 45 37 89 15 44 32 84 36 90 5
5 9 16 9 24 0 19 43 131 50 131 4 0 16 -28 29 -62z"/>
<path d="M7736 6862 c-3 -3 -6 -194 -6 -424 l0 -419 58 3 57 3 0 177 0 177 95
-3 c52 -2 106 -9 120 -15 25 -12 87 -86 83 -99 -1 -4 4 -14 11 -22 7 -8 35
-61 62 -117 l49 -103 63 0 62 0 -56 113 c-80 161 -122 229 -162 260 l-35 27
26 9 c113 43 151 233 69 348 -18 26 -70 58 -127 78 -24 9 -361 16 -369 7z
m342 -109 c65 -32 92 -102 70 -181 -9 -32 -60 -93 -76 -91 -4 1 -9 0 -12 -1
-3 -1 -51 -4 -107 -6 -75 -2 -103 0 -104 9 -1 7 -2 73 -3 147 -1 135 -1 135
23 140 51 11 173 1 209 -17z"/>
<path d="M8539 6836 c-1 -38 -1 -774 0 -798 1 -15 11 -18 59 -18 l57 0 -1 200
c-1 110 0 200 2 200 2 0 94 -90 203 -200 l200 -201 73 3 72 3 -222 224 -223
224 40 36 c40 36 236 221 324 305 26 25 47 48 47 51 0 2 -31 4 -69 2 l-70 -2
-97 -90 c-53 -50 -123 -115 -154 -145 -32 -30 -74 -70 -93 -87 l-36 -33 0 148
c1 236 8 209 -56 209 -54 -1 -55 -1 -56 -31z"/>
<path d="M9304 6858 c-4 -6 -7 -550 -4 -815 l0 -23 273 0 273 0 -1 48 -1 47
-204 0 c-113 1 -210 4 -216 7 -7 5 -10 60 -10 154 l1 148 200 0 200 1 3 43 c2
36 0 44 -20 51 -13 5 -27 6 -31 4 -5 -3 -32 -5 -60 -4 -29 1 -65 1 -82 0 -16
0 -37 -1 -45 0 -36 2 -113 0 -119 -3 -3 -2 -15 0 -27 4 -19 7 -20 16 -20 126
l1 119 210 5 210 5 0 45 0 45 -263 1 c-145 0 -265 -3 -268 -8z"/>
<path d="M9919 6858 c-1 -4 -2 -25 -2 -45 l-1 -38 150 -5 150 -5 -1 -355 c0
-195 1 -363 3 -372 4 -15 15 -18 58 -18 52 0 54 1 55 28 0 15 0 183 1 375 l1
347 148 0 c92 0 149 4 150 10 0 6 1 24 1 40 0 17 -1 34 -1 38 -1 11 -711 11
-712 0z"/>
</g>
</svg>
