<svg width="49" height="49" viewBox="0 0 49 49" fill="none" xmlns="http://www.w3.org/2000/svg">
<circle opacity="0.2" cx="24.8206" cy="24.7425" r="24.1409" fill="#C85D3B"/>
<path opacity="0.3" fill-rule="evenodd" clip-rule="evenodd" d="M16.0433 12.8906C15.3161 12.8906 14.7266 13.4802 14.7266 14.2074V14.383C14.7266 15.1102 15.3161 15.6997 16.0433 15.6997H18.9415V31.2377C18.9415 31.9649 19.531 32.5545 20.2583 32.5545H20.3451V32.6419C20.3451 33.3692 20.9347 33.9587 21.6619 33.9587H34.4785C35.2058 33.9587 35.7953 33.3692 35.7953 32.6419V32.4664C35.7953 31.7391 35.2058 31.1496 34.4785 31.1496H21.7506V14.2074C21.7506 13.4802 21.1611 12.8906 20.4338 12.8906H20.4326H20.2583H16.0433Z" fill="#C85D3B"/>
<rect opacity="0.3" x="24.5586" y="17.1055" width="11.2365" height="11.2365" rx="1.31678" fill="#C85D3B"/>
<path fill-rule="evenodd" clip-rule="evenodd" d="M20.3426 36.7672C22.6697 36.7672 24.5563 34.8807 24.5563 32.5535C24.5563 30.2264 22.6697 28.3398 20.3426 28.3398C18.0154 28.3398 16.1289 30.2264 16.1289 32.5535C16.1289 34.8807 18.0154 36.7672 20.3426 36.7672Z" fill="#C85D3B"/>
</svg>
