<svg width="49" height="49" viewBox="0 0 49 49" fill="none" xmlns="http://www.w3.org/2000/svg">
<circle opacity="0.2" cx="24.5179" cy="24.7425" r="24.1409" fill="#05C699"/>
<path opacity="0.3" fill-rule="evenodd" clip-rule="evenodd" d="M17.5061 16.6295C17.0378 16.5041 16.5565 16.782 16.431 17.2503L13.7695 27.1833C13.644 27.6516 13.9219 28.1329 14.3902 28.2584L33.0449 33.2569C33.5132 33.3824 33.9945 33.1045 34.12 32.6362L36.7815 22.7032C36.907 22.2349 36.6291 21.7535 36.1608 21.628L17.5061 16.6295ZM29.1519 25.9816C28.5782 28.1224 26.3777 29.3929 24.2369 28.8193C22.0961 28.2456 20.8257 26.0451 21.3993 23.9043C21.9729 21.7635 24.1734 20.493 26.3142 21.0667C28.455 21.6403 29.7255 23.8408 29.1519 25.9816Z" fill="#05C699"/>
<path fill-rule="evenodd" clip-rule="evenodd" d="M15.8603 18.6094C15.3754 18.6094 14.9824 19.0024 14.9824 19.4872V29.7706C14.9824 30.2554 15.3754 30.6485 15.8603 30.6485H35.173C35.6578 30.6485 36.0508 30.2554 36.0508 29.7706V19.4872C36.0508 19.0024 35.6578 18.6094 35.173 18.6094H15.8603ZM29.5299 24.6289C29.5299 26.8452 27.7332 28.6419 25.5168 28.6419C23.3005 28.6419 21.5038 26.8452 21.5038 24.6289C21.5038 22.4126 23.3005 20.6159 25.5168 20.6159C27.7332 20.6159 29.5299 22.4126 29.5299 24.6289ZM25.5171 26.6356C26.6252 26.6356 27.5236 25.7372 27.5236 24.6291C27.5236 23.5209 26.6252 22.6226 25.5171 22.6226C24.4089 22.6226 23.5105 23.5209 23.5105 24.6291C23.5105 25.7372 24.4089 26.6356 25.5171 26.6356Z" fill="#05C699"/>
</svg>
