<svg width="49" height="49" viewBox="0 0 49 49" fill="none" xmlns="http://www.w3.org/2000/svg">
<circle opacity="0.2" cx="24.2229" cy="24.7425" r="24.1409" fill="#05C699"/>
<path d="M24.6612 16.4023L23.2908 17.344L21.6601 16.9995L20.7491 18.3928L19.1185 18.699L18.8122 20.3297L17.4189 21.2407L17.7557 22.8714L16.8218 24.2418L17.7557 25.6198L17.4189 27.2428L18.8122 28.1538L19.1185 29.7845L20.7491 30.0983L21.6601 31.484L23.2908 31.1472L24.6612 32.0812L26.0315 31.1472L27.6622 31.484L28.5732 30.0983L30.2039 29.7845L30.5101 28.1538L31.9034 27.2428L31.5666 25.6198L32.5006 24.2418L31.5666 22.8714L31.9034 21.2407L30.5101 20.3297L30.2039 18.699L28.5732 18.3928L27.6622 16.9995L26.0315 17.344L24.6612 16.4023ZM24.6612 18.8522C27.6377 18.8522 30.0508 21.2652 30.0508 24.2418C30.0508 27.2183 27.6377 29.6314 24.6612 29.6314C21.6846 29.6314 19.2716 27.2183 19.2716 24.2418C19.2716 21.2652 21.6846 18.8522 24.6612 18.8522ZM27.5703 21.4781L27.065 22.014L23.8803 25.4131L22.2113 23.9279L21.6601 23.4379L20.6802 24.5403L21.2314 25.0226L23.4363 26.9825L23.9722 27.4571L24.4621 26.9366L28.1368 23.0168L28.6421 22.481L27.5703 21.4781ZM18.2457 28.3682L14.127 34.776L17.8017 34.041L18.7816 37.4708L22.1348 31.8821L21.7597 31.9587C21.5684 32.0007 21.3554 31.9148 21.2467 31.752L20.4505 30.5347L19.0266 30.2591C18.8346 30.2227 18.6725 30.0607 18.6361 29.8687L18.3605 28.4447L18.2457 28.3682ZM31.0766 28.3682L30.9618 28.4447L30.6862 29.8687C30.6498 30.0607 30.4877 30.2227 30.2957 30.2591L28.8718 30.5347L28.0756 31.752C27.9669 31.9148 27.7538 32.0007 27.5627 31.9587L27.1875 31.8821L30.5407 37.4708L31.5207 34.041L35.1954 34.776L31.0766 28.3682Z" fill="#05C699"/>
</svg>
