<svg width="49" height="49" viewBox="0 0 49 49" fill="none" xmlns="http://www.w3.org/2000/svg">
<path opacity="0.3" fill-rule="evenodd" clip-rule="evenodd" d="M14.7227 13.9859L24.9333 12.0714C25.1472 12.0313 25.3666 12.0313 25.5804 12.0714L35.7911 13.9859V27.0688C35.7911 30.3982 34.0759 33.4928 31.2526 35.2573L25.7221 38.7139C25.4375 38.8918 25.0763 38.8918 24.7916 38.7139L19.2612 35.2573C16.4378 33.4928 14.7227 30.3982 14.7227 27.0688L14.7227 13.9859Z" fill="#584DCD"/>
<path fill-rule="evenodd" clip-rule="evenodd" d="M21.9667 21.4485C21.9667 20.2365 22.9493 19.2539 24.1613 19.2539H26.356C27.568 19.2539 28.5506 20.2365 28.5506 21.4485V23.2043H28.99C29.4748 23.2043 29.8678 23.5973 29.8678 24.0821V28.9103C29.8678 29.3951 29.4748 29.7882 28.99 29.7882H21.5282C21.0434 29.7882 20.6504 29.3951 20.6504 28.9103V24.0821C20.6504 23.5973 21.0434 23.2043 21.5282 23.2043H21.9667V21.4485ZM24.5996 20.5708C23.8723 20.5708 23.2828 21.1603 23.2828 21.8876V23.2044H27.2331V21.8876C27.2331 21.1603 26.6436 20.5708 25.9164 20.5708H24.5996Z" fill="#584DCD"/>
<circle opacity="0.2" cx="24.8167" cy="24.7854" r="24.1409" fill="#584DCD"/>
</svg>
