<svg width="49" height="49" viewBox="0 0 49 49" fill="none" xmlns="http://www.w3.org/2000/svg">
<circle opacity="0.2" cx="24.2737" cy="24.2151" r="24.1409" fill="#FFB55E"/>
<path d="M24.7139 14.1191L23.3435 15.0608L21.7129 14.7163L20.8018 16.1096L19.1712 16.4158L18.865 18.0465L17.4716 18.9575L17.8085 20.5882L16.8745 21.9586L17.8085 23.3366L17.4716 24.9596L18.865 25.8706L19.1712 27.5013L20.8018 27.8151L21.7129 29.2008L23.3435 28.864L24.7139 29.798L26.0843 28.864L27.7149 29.2008L28.626 27.8151L30.2566 27.5013L30.5628 25.8706L31.9562 24.9596L31.6193 23.3366L32.5533 21.9586L31.6193 20.5882L31.9562 18.9575L30.5628 18.0465L30.2566 16.4158L28.626 16.1096L27.7149 14.7163L26.0843 15.0608L24.7139 14.1191ZM24.7139 16.569C27.6905 16.569 30.1035 18.982 30.1035 21.9586C30.1035 24.9351 27.6905 27.3482 24.7139 27.3482C21.7373 27.3482 19.3243 24.9351 19.3243 21.9586C19.3243 18.982 21.7373 16.569 24.7139 16.569ZM27.6231 19.1949L27.1178 19.7308L23.933 23.1299L22.2641 21.6447L21.7129 21.1547L20.7329 22.2571L21.2842 22.7394L23.489 24.6993L24.0249 25.1739L24.5149 24.6534L28.1896 20.7336L28.6949 20.1977L27.6231 19.1949ZM18.2984 26.0849L14.1797 32.4928L17.8544 31.7578L18.8343 35.1876L22.1875 29.5989L21.8124 29.6755C21.6212 29.7175 21.4081 29.6316 21.2995 29.4688L20.5033 28.2515L19.0793 27.9759C18.8873 27.9395 18.7252 27.7775 18.6889 27.5855L18.4133 26.1615L18.2984 26.0849ZM31.1294 26.0849L31.0145 26.1615L30.7389 27.5855C30.7025 27.7775 30.5405 27.9395 30.3485 27.9759L28.9245 28.2515L28.1283 29.4688C28.0197 29.6316 27.8065 29.7175 27.6154 29.6755L27.2403 29.5989L30.5935 35.1876L31.5734 31.7578L35.2481 32.4928L31.1294 26.0849Z" fill="#FFB55E"/>
</svg>
