<svg width="48" height="47" viewBox="0 0 48 47" fill="none" xmlns="http://www.w3.org/2000/svg">
<circle opacity="0.2" cx="23.7697" cy="23.4806" r="23.3146" fill="#584DCD"/>
<path d="M24.1951 13.7305L22.8716 14.6399L21.2968 14.3072L20.417 15.6528L18.8421 15.9486L18.5464 17.5234L17.2007 18.4032L17.5261 19.9781L16.624 21.3015L17.5261 22.6324L17.2007 24.1999L18.5464 25.0797L18.8421 26.6545L20.417 26.9577L21.2968 28.2959L22.8716 27.9706L24.1951 28.8726L25.5186 27.9706L27.0934 28.2959L27.9733 26.9577L29.5481 26.6545L29.8439 25.0797L31.1895 24.1999L30.8642 22.6324L31.7662 21.3015L30.8642 19.9781L31.1895 18.4032L29.8439 17.5234L29.5481 15.9486L27.9733 15.6528L27.0934 14.3072L25.5186 14.6399L24.1951 13.7305ZM24.1951 16.0964C27.0698 16.0964 29.4002 18.4268 29.4002 21.3015C29.4002 24.1762 27.0698 26.5067 24.1951 26.5067C21.3204 26.5067 18.99 24.1762 18.99 21.3015C18.99 18.4268 21.3204 16.0964 24.1951 16.0964ZM27.0047 18.6324L26.5167 19.15L23.441 22.4328L21.8292 20.9984L21.2968 20.5252L20.3504 21.5899L20.8828 22.0557L23.0121 23.9485L23.5297 24.4069L24.0029 23.9041L27.5518 20.1186L28.0398 19.601L27.0047 18.6324ZM17.9993 25.2867L14.0215 31.4752L17.5704 30.7654L18.5168 34.0777L21.7552 28.6804L21.3929 28.7543C21.2083 28.7949 21.0025 28.712 20.8976 28.5547L20.1286 27.3791L18.7534 27.1129C18.568 27.0778 18.4115 26.9213 18.3763 26.7359L18.1102 25.3606L17.9993 25.2867ZM30.391 25.2867L30.2801 25.3606L30.0139 26.7359C29.9788 26.9213 29.8223 27.0778 29.6368 27.1129L28.2616 27.3791L27.4927 28.5547C27.3877 28.712 27.1819 28.7949 26.9973 28.7543L26.635 28.6804L29.8734 34.0777L30.8198 30.7654L34.3688 31.4752L30.391 25.2867Z" fill="#584DCD"/>
</svg>
