<svg width="47" height="47" viewBox="0 0 47 47" fill="none" xmlns="http://www.w3.org/2000/svg">
<circle opacity="0.2" cx="23.4122" cy="23.5802" r="23.3146" fill="#C85D3B"/>
<g clip-path="url(#clip0_8627_12020)">
<path d="M18.0796 27.7256C21.2216 27.7256 23.7686 25.1786 23.7686 22.0367C23.7686 18.8947 21.2216 16.3477 18.0796 16.3477C14.9377 16.3477 12.3906 18.8947 12.3906 22.0367C12.3906 25.1786 14.9377 27.7256 18.0796 27.7256Z" stroke="#C85D3B" stroke-width="1.93154" stroke-miterlimit="10"/>
<path d="M25.4531 16.5555C25.956 16.4191 26.4746 16.3492 26.9957 16.3477C28.5045 16.3477 29.9516 16.947 31.0184 18.0139C32.0853 19.0808 32.6847 20.5278 32.6847 22.0367C32.6847 23.5455 32.0853 24.9925 31.0184 26.0594C29.9516 27.1263 28.5045 27.7256 26.9957 27.7256" stroke="#C85D3B" stroke-width="1.93154" stroke-linecap="round" stroke-linejoin="round"/>
<path d="M10.2012 31.8167C11.0895 30.5526 12.2689 29.5209 13.64 28.8087C15.011 28.0964 16.5333 27.7246 18.0782 27.7246C19.6232 27.7246 21.1455 28.0964 22.5165 28.8087C23.8875 29.5209 25.067 30.5526 25.9553 31.8167" stroke="#C85D3B" stroke-width="1.93154" stroke-linecap="round" stroke-linejoin="round"/>
<path d="M26.9961 27.7246C28.5412 27.7237 30.0638 28.095 31.435 28.8073C32.8061 29.5195 33.9855 30.5516 34.8732 31.8163" stroke="#C85D3B" stroke-width="1.93154" stroke-linecap="round" stroke-linejoin="round"/>
</g>
<defs>
<clipPath id="clip0_8627_12020">
<rect width="28.0074" height="28.0074" fill="white" transform="translate(8.45117 10.2207)"/>
</clipPath>
</defs>
</svg>
